<?xml version="1.0" encoding="utf-8"?>
<!-- Generator: Adobe Illustrator 25.4.1, SVG Export Plug-In . SVG Version: 6.00 Build 0)  -->
<svg version="1.1" id="Capa_1" xmlns="http://www.w3.org/2000/svg" xmlns:xlink="http://www.w3.org/1999/xlink" x="0px" y="0px"
	 viewBox="0 0 388 447" style="enable-background:new 0 0 388 447;" xml:space="preserve">
<style type="text/css">
	.st0{fill:#FFFFFF;}
</style>
<g>
	<g>
		<g>
			<circle class="st0" cx="120" cy="176.8" r="25.8"/>
		</g>
	</g>
	<g>
		<g>
			<circle class="st0" cx="271" cy="176.8" r="25.8"/>
		</g>
	</g>
	<g>
		<g>
			<path class="st0" d="M295.9,238.9l-29.6,29.6l-27.7-27.7l0,0l0,0c-3.8-3.8-10.5-3.8-14.3,0l-28.7,28.7l-27.7-27.7
				c-3.8-3.8-10.5-3.8-14.3,0l0,0h-1l-28.7,28.7l-29.6-29.6c-3.8-3.8-10.5-3.8-14.3,0c-3.8,3.8-3.8,10.5,0,14.3l36.3,36.3
				c1.9,1.9,4.8,2.9,6.7,2.9c2.9,0,4.8-1,6.7-2.9l28.7-28.7l27.7,27.7c3.8,3.8,10.5,3.8,14.3,0l0,0c0,0,0,0,1,0l28.7-28.7l27.7,27.7
				c3.8,3.8,10.5,3.8,14.3,0l36.3-36.3c3.8-3.8,3.8-10.5,0-14.3C306.4,235.1,299.7,235.1,295.9,238.9z"/>
		</g>
	</g>
	<g>
		<g>
			<path class="st0" d="M378.1,120.4c0-15.3-5.7-30.6-17.2-41.1L316,31.4c-10.5-10.5-25.8-17.2-41.1-17.2H117.1
				c-15.3,0-30.6,6.7-41.1,17.2L30.1,78.3c-10.5,10.5-17.2,25.8-17.2,41.1v286.9c0,11.5,6.7,21,17.2,24.9s22,1,29.6-7.6l24.9-28.7
				l22.9,25.8c8.6,9.6,20.1,15.3,32.5,15.3h1c12.4,0,23.9-4.8,32.5-13.4l22-22l22,22c8.6,8.6,21,14.3,33.5,13.4
				c12.4,0,24.9-5.7,32.5-15.3l23-25.8l24.9,28.7c7.6,8.6,19.1,11.5,29.6,7.6c10.5-3.8,17.2-13.4,17.2-24.9L378.1,120.4L378.1,120.4
				z M326.5,370.9c-10.5-11.5-29.6-11.5-40.2,0l-26.8,30.6c-2.9,2.9-5.7,4.8-9.6,4.8c-2.9,0-7.6-1-9.6-3.8l-25.8-26.8
				c-9.6-10.5-27.7-10.5-38.2,0l-25.8,26.8c-2.9,2.9-5.7,3.8-9.6,3.8c-3.8,0-6.7-1.9-9.6-4.8l-26.8-30.6c-4.8-5.7-12.4-8.6-20.1-8.6
				c-7.6,0-15.3,2.9-20.1,8.6l-20.1,22V120.4c0-6.7,2.9-13.4,7.6-19.1L98,54.4c4.8-4.8,11.5-7.6,18.2-7.6h157.8
				c6.7,0,13.4,2.9,18.2,7.6l44.9,47.8c4.8,4.8,7.6,11.5,7.6,18.2v272.5L326.5,370.9z"/>
		</g>
	</g>
</g>
</svg>
