<?xml version="1.0" encoding="utf-8"?>
<!-- Generator: Adobe Illustrator 28.2.0, SVG Export Plug-In . SVG Version: 6.00 Build 0)  -->
<svg version="1.1" id="Capa_1" xmlns="http://www.w3.org/2000/svg" xmlns:xlink="http://www.w3.org/1999/xlink" x="0px" y="0px"
	 viewBox="0 0 20 20" style="enable-background:new 0 0 20 20;" xml:space="preserve">
<style type="text/css">
	.st0{fill:none;stroke:#C1C1C1;stroke-width:49.5106;stroke-linecap:round;stroke-linejoin:round;stroke-miterlimit:10;}
	.st1{fill:#C1C1C1;}
	.st2{fill:#FFFFFF;}
	.st3{fill:none;stroke:#FFFFFF;stroke-width:20;stroke-miterlimit:10;}
	.st4{fill:none;stroke:#C1C1C1;stroke-width:22.8507;stroke-linecap:round;stroke-linejoin:round;stroke-miterlimit:10;}
	.st5{fill:none;stroke:#C1C1C1;stroke-width:29.4505;stroke-linecap:round;stroke-linejoin:round;stroke-miterlimit:10;}
	.st6{fill:none;stroke:#C1C1C1;stroke-width:35;stroke-linecap:round;stroke-linejoin:round;stroke-miterlimit:10;}
	.st7{fill:none;stroke:#C1C1C1;stroke-width:1.2247;stroke-miterlimit:10;}
	.st8{fill:#606060;}
	.st9{fill:#C1C1C1;stroke:#C1C1C1;stroke-width:30;stroke-linecap:round;stroke-linejoin:round;stroke-miterlimit:10;}
	.st10{fill:#2D3340;}
	.st11{fill:none;stroke:#000000;stroke-width:15;stroke-linecap:round;stroke-linejoin:round;stroke-miterlimit:10;}
</style>
<g>
	<path class="st2" d="M14.6,1.6l-1-0.9c-0.2-0.2-0.4-0.3-0.7-0.3H7.2c-0.3,0-0.5,0.1-0.7,0.3l-1,0.9C5.2,1.8,5.1,2,5.1,2.3v9.5v4.6
		v1.2c0,0.3,0.1,0.6,0.3,0.8l1,0.9c0.2,0.2,0.4,0.3,0.7,0.3h5.7c0.3,0,0.5-0.1,0.7-0.3l1-0.9c0.2-0.2,0.3-0.5,0.3-0.8v-1.2v-4.6V2.3
		C14.9,2,14.8,1.8,14.6,1.6z M7.6,16.4c-0.4,0-0.6-0.3-0.6-0.6s0.3-0.6,0.6-0.6s0.6,0.3,0.6,0.6S8,16.4,7.6,16.4z M7.6,14.5
		c-0.4,0-0.6-0.3-0.6-0.6c0-0.4,0.3-0.6,0.6-0.6s0.6,0.3,0.6,0.6C8.2,14.2,8,14.5,7.6,14.5z M13,4.1H7v-1H13V4.1z"/>
</g>
</svg>
